<svg width="400" height="280" viewBox="0 0 400 280" fill="none" xmlns="http://www.w3.org/2000/svg">
<rect width="400" height="280" fill="white"/>
<path d="M21 44C21 31.2975 31.2975 21 44 21H379V236C379 248.703 368.703 259 356 259H21V44Z" stroke="#C4C4C4" stroke-opacity="0.5" stroke-width="2"/>
<g clip-path="url(#clip0_71_846)">
<path d="M12.5 54.5L0 62.5V0H90L72.5 14L66.5 9.5L60.5 14L54 9.5L48.5 14L43 9.5L37 14L29 9.5L12.5 20.5V54.5Z" fill="#0073BC"/>
<path d="M6.39863 12.0021L12.7736 15.6827L6.39863 19.3633L6.39863 12.0021Z" fill="#15A4EE"/>
<path d="M6.12299 4.5245L12.498 8.20511L6.12299 11.8857L6.12299 4.5245Z" fill="#15A4EE"/>
<path d="M0.0607349 8.0245L6.43573 11.7051L0.0607349 15.3857L0.0607349 8.0245Z" fill="#15A4EE"/>
<path d="M38.5781 1.3995L38.5781 8.76071L32.2031 5.08011L38.5781 1.3995Z" fill="#15A4EE"/>
<path d="M26.7167 1.3995L33.0917 5.08011L26.7167 8.76071L26.7167 1.3995Z" fill="#15A4EE"/>
<path d="M75.8527 1.3995L75.8527 8.76071L69.4777 5.08011L75.8527 1.3995Z" fill="#15A4EE"/>
<path d="M63.9914 1.3995L70.3664 5.08011L63.9914 8.76071L63.9914 1.3995Z" fill="#15A4EE"/>
<path d="M3.03735 41.6494L10.3986 41.6494L6.71796 48.0244L3.03735 41.6494Z" fill="#15A4EE"/>
<path d="M3.03735 53.5108L6.71796 47.1358L10.3986 53.5108L3.03735 53.5108Z" fill="#15A4EE"/>
<path d="M13.6389 -0.433683L21.0001 -0.433682L17.3195 5.94132L13.6389 -0.433683Z" fill="#15A4EE"/>
<path d="M13.6389 11.4276L17.3195 5.05265L21.0001 11.4276L13.6389 11.4276Z" fill="#15A4EE"/>
<path d="M2.36936 30.3097L6.53174 36.3811L-0.807455 36.9501L2.36936 30.3097Z" fill="#15A4EE"/>
<path d="M5.34764 23.4452L9.51001 29.5166L2.17082 30.0857L5.34764 23.4452Z" fill="#15A4EE"/>
<path d="M-1.63137 23.9863L2.531 30.0577L-4.80819 30.6267L-1.63137 23.9863Z" fill="#15A4EE"/>
<path d="M50.3418 4.6875L56.7168 1.00689V8.36811L50.3418 4.6875Z" fill="#15A4EE"/>
<path d="M43.728 1.1875L50.103 -2.49311V4.86811L43.728 1.1875Z" fill="#15A4EE"/>
<path d="M43.728 8.1875L50.103 4.50689V11.8681L43.728 8.1875Z" fill="#15A4EE"/>
</g>
<g clip-path="url(#clip1_71_846)">
<path d="M387.5 225.5L400 217.5V280H310L327.5 266L333.5 270.5L339.5 266L346 270.5L351.5 266L357 270.5L363 266L371 270.5L387.5 259.5V225.5Z" fill="#0073BC"/>
<path d="M393.601 267.998L387.226 264.317L393.601 260.637L393.601 267.998Z" fill="#15A4EE"/>
<path d="M393.877 275.475L387.502 271.795L393.877 268.114L393.877 275.475Z" fill="#15A4EE"/>
<path d="M399.939 271.975L393.564 268.295L399.939 264.614L399.939 271.975Z" fill="#15A4EE"/>
<path d="M361.422 278.6L361.422 271.239L367.797 274.92L361.422 278.6Z" fill="#15A4EE"/>
<path d="M373.283 278.6L366.908 274.92L373.283 271.239L373.283 278.6Z" fill="#15A4EE"/>
<path d="M324.147 278.601L324.147 271.239L330.522 274.92L324.147 278.601Z" fill="#15A4EE"/>
<path d="M336.009 278.601L329.634 274.92L336.009 271.239L336.009 278.601Z" fill="#15A4EE"/>
<path d="M396.963 238.351L389.601 238.351L393.282 231.976L396.963 238.351Z" fill="#15A4EE"/>
<path d="M396.963 226.489L393.282 232.864L389.601 226.489L396.963 226.489Z" fill="#15A4EE"/>
<path d="M386.361 280.434L379 280.434L382.68 274.059L386.361 280.434Z" fill="#15A4EE"/>
<path d="M386.361 268.572L382.68 274.947L379 268.572L386.361 268.572Z" fill="#15A4EE"/>
<path d="M397.631 249.69L393.468 243.619L400.807 243.05L397.631 249.69Z" fill="#15A4EE"/>
<path d="M394.652 256.555L390.49 250.483L397.829 249.914L394.652 256.555Z" fill="#15A4EE"/>
<path d="M401.631 256.014L397.469 249.942L404.808 249.373L401.631 256.014Z" fill="#15A4EE"/>
<path d="M349.658 275.312L343.283 278.993V271.632L349.658 275.312Z" fill="#15A4EE"/>
<path d="M356.272 278.812L349.897 282.493V275.132L356.272 278.812Z" fill="#15A4EE"/>
<path d="M356.272 271.812L349.897 275.493V268.132L356.272 271.812Z" fill="#15A4EE"/>
</g>
<defs>
<clipPath id="clip0_71_846">
<rect width="90" height="62.5" fill="white"/>
</clipPath>
<clipPath id="clip1_71_846">
<rect width="90" height="62.5" fill="white" transform="translate(400 280) rotate(-180)"/>
</clipPath>
</defs>
</svg>
