<svg width="400" height="280" viewBox="0 0 400 280" fill="none" xmlns="http://www.w3.org/2000/svg">
<g clip-path="url(#clip0_82_981)">
<rect width="400" height="280" fill="white"/>
<g filter="url(#filter0_i_82_981)">
<path d="M99.8137 75.4684C126.89 82.2929 170.752 93.5478 170.752 93.5478C170.752 93.5478 106.09 56.5482 80.8927 48.1061C62.7859 42.0396 51.8384 38.8284 33.5196 34.6925C20.8605 31.8344 7.62939e-05 31.2945 7.62939e-05 31.2945V70.7112C7.62939e-05 70.7112 23.8895 65.5432 39.4787 65.2744C63.4373 64.8614 76.716 69.6467 99.8137 75.4684Z" fill="url(#paint0_linear_82_981)"/>
</g>
<g filter="url(#filter1_i_82_981)">
<path d="M300.186 75.4684C273.11 82.2929 229.248 93.5478 229.248 93.5478C229.248 93.5478 293.91 56.5482 319.107 48.1061C337.214 42.0396 348.162 38.8284 366.48 34.6925C379.14 31.8344 400 31.2945 400 31.2945V70.7112C400 70.7112 376.111 65.5432 360.521 65.2744C336.563 64.8614 323.284 69.6467 300.186 75.4684Z" fill="url(#paint1_linear_82_981)"/>
</g>
<g filter="url(#filter2_i_82_981)">
<path d="M400 0H0.000488281V29.2227C0.000488281 29.2227 12.2764 28.7325 20.1121 29.2227C42.9947 30.6543 52.8774 36.2698 74.6668 42.8045C128.324 58.8963 181.792 106.649 207.821 99.2214C233.851 91.794 276.641 60.2829 324.767 43.4943C342.811 37.1999 352.509 31.2757 371.695 29.2227C382.673 28.048 400 29.2227 400 29.2227V0Z" fill="#132944"/>
</g>
<path fill-rule="evenodd" clip-rule="evenodd" d="M232 302H168V232H168.328L200 250.75L231.672 232H232V302Z" fill="url(#paint2_linear_82_981)"/>
<line x1="173" y1="282" x2="173" y2="234" stroke="#FFDF7E" stroke-width="2"/>
<line x1="228" y1="282" x2="228" y2="234" stroke="#FFDF7E" stroke-width="2"/>
</g>
<defs>
<filter id="filter0_i_82_981" x="0" y="29.2945" width="170.752" height="64.2533" filterUnits="userSpaceOnUse" color-interpolation-filters="sRGB">
<feFlood flood-opacity="0" result="BackgroundImageFix"/>
<feBlend mode="normal" in="SourceGraphic" in2="BackgroundImageFix" result="shape"/>
<feColorMatrix in="SourceAlpha" type="matrix" values="0 0 0 0 0 0 0 0 0 0 0 0 0 0 0 0 0 0 127 0" result="hardAlpha"/>
<feOffset dy="-2"/>
<feGaussianBlur stdDeviation="1"/>
<feComposite in2="hardAlpha" operator="arithmetic" k2="-1" k3="1"/>
<feColorMatrix type="matrix" values="0 0 0 0 1 0 0 0 0 0.87451 0 0 0 0 0.494118 0 0 0 1 0"/>
<feBlend mode="normal" in2="shape" result="effect1_innerShadow_82_981"/>
</filter>
<filter id="filter1_i_82_981" x="229.248" y="29.2945" width="170.752" height="64.2533" filterUnits="userSpaceOnUse" color-interpolation-filters="sRGB">
<feFlood flood-opacity="0" result="BackgroundImageFix"/>
<feBlend mode="normal" in="SourceGraphic" in2="BackgroundImageFix" result="shape"/>
<feColorMatrix in="SourceAlpha" type="matrix" values="0 0 0 0 0 0 0 0 0 0 0 0 0 0 0 0 0 0 127 0" result="hardAlpha"/>
<feOffset dy="-2"/>
<feGaussianBlur stdDeviation="1"/>
<feComposite in2="hardAlpha" operator="arithmetic" k2="-1" k3="1"/>
<feColorMatrix type="matrix" values="0 0 0 0 1 0 0 0 0 0.87451 0 0 0 0 0.494118 0 0 0 1 0"/>
<feBlend mode="normal" in2="shape" result="effect1_innerShadow_82_981"/>
</filter>
<filter id="filter2_i_82_981" x="0.000488281" y="-4" width="400" height="104" filterUnits="userSpaceOnUse" color-interpolation-filters="sRGB">
<feFlood flood-opacity="0" result="BackgroundImageFix"/>
<feBlend mode="normal" in="SourceGraphic" in2="BackgroundImageFix" result="shape"/>
<feColorMatrix in="SourceAlpha" type="matrix" values="0 0 0 0 0 0 0 0 0 0 0 0 0 0 0 0 0 0 127 0" result="hardAlpha"/>
<feOffset dy="-4"/>
<feGaussianBlur stdDeviation="3"/>
<feComposite in2="hardAlpha" operator="arithmetic" k2="-1" k3="1"/>
<feColorMatrix type="matrix" values="0 0 0 0 1 0 0 0 0 1 0 0 0 0 1 0 0 0 0.2 0"/>
<feBlend mode="normal" in2="shape" result="effect1_innerShadow_82_981"/>
</filter>
<linearGradient id="paint0_linear_82_981" x1="83.4269" y1="31.2945" x2="83.4269" y2="99.2543" gradientUnits="userSpaceOnUse">
<stop stop-color="#FBCB7C"/>
<stop offset="1" stop-color="#E09C3A"/>
</linearGradient>
<linearGradient id="paint1_linear_82_981" x1="316.573" y1="31.2945" x2="316.573" y2="99.2543" gradientUnits="userSpaceOnUse">
<stop stop-color="#FBCB7C"/>
<stop offset="1" stop-color="#E09C3A"/>
</linearGradient>
<linearGradient id="paint2_linear_82_981" x1="232" y1="267" x2="168" y2="267" gradientUnits="userSpaceOnUse">
<stop stop-color="#2E4E78"/>
<stop offset="0.520833" stop-color="#112B49"/>
<stop offset="0.989583" stop-color="#2E4E79"/>
</linearGradient>
<clipPath id="clip0_82_981">
<rect width="400" height="280" fill="white"/>
</clipPath>
</defs>
</svg>
