<svg width="400" height="280" viewBox="0 0 400 280" fill="none" xmlns="http://www.w3.org/2000/svg">
<rect width="400" height="280" fill="white"/>
<path d="M128.802 280L0.0742188 136V280H128.802Z" fill="#EDEDED"/>
<path d="M96.5452 280L0.54541 178.545V280H96.5452Z" fill="#D9D8D6"/>
<path opacity="0.6" d="M82.9093 246.182L112.909 280H87.8185L69.8184 261.342L82.9093 246.182Z" fill="#F08C65"/>
<path d="M27.2727 185.636L0 157.818V185.636L15.8183 199.818L27.2727 185.636Z" fill="#26364D"/>
<path d="M55.091 280L0 221.091V280H55.091Z" fill="#26364D"/>
<path opacity="0.5" d="M33.818 235.818L0 197.636V270.182L33.818 235.818Z" fill="#F08C65"/>
<path opacity="0.5" d="M51.2725 254.909L73.0905 280H26.7271L51.2725 254.909Z" fill="#F08C65"/>
<path d="M292.665 2.28882e-05L399.938 120V2.28882e-05H292.665Z" fill="#EDEDED"/>
<path d="M319.546 7.62939e-06L399.545 84.5455V7.62939e-06H319.546Z" fill="#D9D8D6"/>
<path opacity="0.6" d="M330.909 28.1818L305.909 1.33514e-05H326.818L341.818 15.5486L330.909 28.1818Z" fill="#F08C65"/>
<path d="M377.273 78.6364L400 101.818V78.6364L386.818 66.8182L377.273 78.6364Z" fill="#26364D"/>
<path d="M354.091 3.8147e-06L400 49.0909V3.8147e-06H354.091Z" fill="#26364D"/>
<path opacity="0.5" d="M371.818 36.8182L400 68.6364V8.18183L371.818 36.8182Z" fill="#F08C65"/>
<path opacity="0.5" d="M357.273 20.9091L339.091 1.52588e-05H377.728L357.273 20.9091Z" fill="#F08C65"/>
</svg>
