<svg width="400" height="280" viewBox="0 0 400 280" fill="none" xmlns="http://www.w3.org/2000/svg">
<g clip-path="url(#clip0_83_1208)">
<rect width="400" height="280" fill="white"/>
<path d="M20.5476 279.008L75.3278 110.057L-2.9292 279.008H20.5476Z" fill="#F04A23"/>
<path d="M75.9682 109.681L-3 235.539V280L75.9682 109.681Z" fill="url(#paint0_linear_83_1208)"/>
<path d="M76.6798 109.681L-0.865723 232.119V154.142L76.6798 109.681Z" fill="url(#paint1_linear_83_1208)"/>
<path d="M75.9688 110.432L-0.865723 41.9629V154.142L75.9688 110.432Z" fill="#C12D21"/>
<path d="M-0.54541 0V42.1706L77.0001 111.049L6.56881 0H-0.54541Z" fill="#FDE29B"/>
<path d="M74.2971 108.758L20.9401 0H4.57715L74.2971 108.758Z" fill="url(#paint2_radial_83_1208)"/>
<path d="M379.452 279.008L324.672 110.057L402.929 279.008H379.452Z" fill="#F04A23"/>
<path d="M324.032 109.681L403 235.539V280L324.032 109.681Z" fill="url(#paint3_linear_83_1208)"/>
<path d="M323.32 109.681L400.866 232.119V154.142L323.32 109.681Z" fill="url(#paint4_linear_83_1208)"/>
<path d="M324.031 110.432L400.866 41.9629V154.142L324.031 110.432Z" fill="#C12D21"/>
<path d="M400.545 0V42.1706L323 111.049L393.431 0H400.545Z" fill="#FDE29B"/>
<path d="M325.703 108.758L379.06 0H395.423L325.703 108.758Z" fill="url(#paint5_radial_83_1208)"/>
</g>
<defs>
<linearGradient id="paint0_linear_83_1208" x1="75.9682" y1="114.469" x2="1.63572" y2="253.074" gradientUnits="userSpaceOnUse">
<stop stop-color="#D53B17"/>
<stop offset="1" stop-color="#E63C22"/>
</linearGradient>
<linearGradient id="paint1_linear_83_1208" x1="76.6798" y1="109.681" x2="2.33645" y2="191.261" gradientUnits="userSpaceOnUse">
<stop offset="0.625" stop-color="#E64720"/>
<stop offset="1" stop-color="#BB2F22"/>
</linearGradient>
<radialGradient id="paint2_radial_83_1208" cx="0" cy="0" r="1" gradientUnits="userSpaceOnUse" gradientTransform="translate(39.4371 54.3789) rotate(90) scale(54.3789 34.86)">
<stop stop-color="#F3DE94"/>
<stop offset="1" stop-color="#AF7939"/>
</radialGradient>
<linearGradient id="paint3_linear_83_1208" x1="324.032" y1="114.469" x2="398.364" y2="253.074" gradientUnits="userSpaceOnUse">
<stop stop-color="#D53B17"/>
<stop offset="1" stop-color="#E63C22"/>
</linearGradient>
<linearGradient id="paint4_linear_83_1208" x1="323.32" y1="109.681" x2="397.664" y2="191.261" gradientUnits="userSpaceOnUse">
<stop offset="0.625" stop-color="#E64720"/>
<stop offset="1" stop-color="#BB2F22"/>
</linearGradient>
<radialGradient id="paint5_radial_83_1208" cx="0" cy="0" r="1" gradientUnits="userSpaceOnUse" gradientTransform="translate(360.563 54.3789) rotate(90) scale(54.3789 34.86)">
<stop stop-color="#F3DE94"/>
<stop offset="1" stop-color="#AF7939"/>
</radialGradient>
<clipPath id="clip0_83_1208">
<rect width="400" height="280" fill="white"/>
</clipPath>
</defs>
</svg>
