<svg width="400" height="280" viewBox="0 0 400 280" fill="none" xmlns="http://www.w3.org/2000/svg">
<g clip-path="url(#clip0_83_1140)">
<rect width="400" height="280" fill="white"/>
<path d="M400 1.15607V72.2543L286.705 1.15607H400Z" fill="#009591"/>
<path d="M342.196 35.8381L161.271 1.15607H290.173L342.196 35.8381Z" fill="#02696E"/>
<path d="M36.4158 33.526L56.0694 47.3988H13.8728L36.4158 33.526Z" fill="#02696E"/>
<path d="M0 51.4451V0L37.5722 26.5896L0 51.4451Z" fill="#02696E"/>
<path d="M60.1158 43.9306L1.15576 1.15607H162.428L60.1158 43.9306Z" fill="#6CD3D8"/>
<path d="M101.734 1.15607L59.5371 45.0867L160.693 1.15607H101.734Z" fill="#19C9C9"/>
<path d="M129.088 248.741L0 258.003V277.685L129.088 248.741Z" fill="#19CDCD" stroke="#19CDCD"/>
<path d="M129.667 248.741L159.19 279.421H0.578613L129.667 248.741Z" fill="#6CD3D8"/>
<path d="M27.786 255.687L1.15747 237.742V255.687H27.786Z" fill="#009593"/>
<path d="M166.715 252.793H273.227L234.443 280H191.606L166.715 252.793Z" fill="#E7F5F6"/>
<path d="M307.959 245.847L400 250.478V260.897L307.959 245.847Z" fill="#1BCECA"/>
<path d="M309.117 244.689L252.967 280H400V262.055L309.117 244.689Z" fill="#6BD3DA"/>
<path d="M35.2388 122.569L70.9315 133.899L37.9582 159.918L35.2388 122.569Z" fill="#E7F5F6"/>
<path d="M76.844 79.3286L93.5152 87.4195L75.5152 97.8118L76.844 79.3286Z" fill="#E7F5F6"/>
<path d="M3.9842 65.8518L11.5544 82.7659L-8.91443 79.1566L3.9842 65.8518Z" fill="#E7F5F6"/>
<path d="M375.76 123.597L380.807 134.873L367.161 132.467L375.76 123.597Z" fill="#E7F5F6"/>
<path d="M315.76 163.597L320.807 174.873L307.161 172.467L315.76 163.597Z" fill="#E7F5F6"/>
<path d="M368.235 222.165L377.575 230.251L364.19 233.838L368.235 222.165Z" fill="#E7F5F6"/>
<path d="M318.863 77.3718L315.946 92.5362L303.698 80.2887L318.863 77.3718Z" fill="#E7F5F6"/>
<path d="M70.1463 203.437L67.2293 218.602L54.9818 206.354L70.1463 203.437Z" fill="#E7F5F6"/>
</g>
<defs>
<clipPath id="clip0_83_1140">
<rect width="400" height="280" fill="white"/>
</clipPath>
</defs>
</svg>
