<svg width="400" height="151" viewBox="0 0 400 151" fill="none" xmlns="http://www.w3.org/2000/svg">
<path d="M400 0H188.239C188.239 0 205.289 1.15169 215.974 2.75C224.744 4.06176 229.472 5.29305 238.087 7C250.869 9.53242 258.22 10.611 270.695 13.75C281.916 16.5735 288.033 18.4827 298.805 22C308.803 25.2649 311.121 26.0447 320.543 30C330.379 34.1292 336.184 36.8755 344.905 42C351.118 45.6508 357.128 48.787 362.895 52.75C369.602 57.3594 372.82 60.3806 378.637 65.5C383.641 69.9043 387.307 72.4374 391.38 77.25C395.176 81.7369 400 88.5 400 88.5V0Z" fill="#2D8CA8"/>
<path d="M0 100.785V0H172.959L221.946 9.82929C221.946 9.82929 203.833 12.0026 192.39 14.1446C183.011 15.9002 177.805 17.1191 168.58 19.4188C155.481 22.6847 148.238 24.8638 135.466 29.0084C125.529 32.2333 119.984 34.1293 110.289 37.8787C95.5099 43.5943 87.241 46.9655 73.3434 54.1809C59.2657 61.4899 51.7404 66.1946 38.861 75.0382C26.2874 83.6718 0 100.785 0 100.785Z" fill="#28788F"/>
<path d="M30.0746 87.5009C21.7502 94.0381 0.336304 105.887 0.336304 105.887V150.443L18.4096 135.761L32.2267 123.532C32.2267 123.532 39.7295 116.529 44.3169 111.797C50.685 105.229 54.5815 101.785 61.5576 95.7091C67.9468 90.1444 71.6087 87.082 78.4235 81.9193C86.4636 75.8284 91.2152 72.6511 99.787 67.1445C107.513 62.181 111.828 59.3409 120.026 54.9964C128.933 50.2762 134.31 48.2094 143.638 44.1615C153.907 39.7053 159.645 37.1333 170.249 33.3267C181.172 29.4054 187.503 27.6488 198.734 24.4618C207.456 21.9866 212.383 20.689 221.221 18.5519C229.229 16.6157 241.835 13.9553 241.835 13.9553L230.966 11.0004C230.966 11.0004 212.661 14.2808 200.982 16.582C189.829 18.7795 183.514 19.8169 172.498 22.4919C163.204 24.7485 158 26.2751 148.992 28.9172L148.511 29.0584C139.819 31.6079 134.906 32.965 126.398 35.9533C118.066 38.8797 113.499 40.7545 105.409 44.1615C94.6693 48.6844 88.7331 51.4034 78.4235 56.638C68.6916 61.5793 63.1858 64.3366 54.0616 70.0995C44.1959 76.3307 39.1309 80.3888 30.0746 87.5009Z" fill="#B3B3B3"/>
</svg>
