<svg width="32" height="30" viewBox="0 0 32 30" fill="none" xmlns="http://www.w3.org/2000/svg">
<rect x="6" y="0.5" width="20" height="20" rx="4" fill="#121212"/>
<path d="M0.526844 25.4C0.508844 26.642 1.42684 27.602 2.68084 27.584C3.51484 27.584 4.20484 27.188 4.54684 26.462L3.89884 26.114C3.65284 26.618 3.22684 26.87 2.69884 26.87C1.88284 26.87 1.32484 26.246 1.32484 25.4C1.32484 24.554 1.88284 23.93 2.69884 23.93C3.22684 23.93 3.64684 24.182 3.89284 24.686L4.54684 24.338C4.20484 23.612 3.51484 23.216 2.68084 23.216C1.42684 23.198 0.508844 24.17 0.526844 25.4ZM4.96239 25.4C4.94439 26.612 5.89239 27.602 7.14639 27.584C8.40039 27.602 9.34839 26.612 9.33039 25.4C9.34839 24.194 8.40039 23.192 7.14639 23.216C5.89239 23.192 4.94439 24.194 4.96239 25.4ZM8.53239 25.4C8.53239 26.246 7.96839 26.87 7.14639 26.87C6.32439 26.87 5.76039 26.246 5.76039 25.4C5.76039 24.554 6.32439 23.93 7.14639 23.93C7.96839 23.93 8.53239 24.554 8.53239 25.4ZM13.8546 23.3L12.4506 25.634L11.0466 23.3H10.1706V27.5H10.9146V24.416L12.1506 26.462H12.7446L13.9806 24.416V27.5H14.7246V23.3H13.8546ZM19.036 24.662C19.036 23.792 18.502 23.3 17.524 23.3H15.778V27.5H16.54V26.024H17.524C18.508 26.024 19.036 25.544 19.036 24.662ZM18.238 24.662C18.238 25.124 18.022 25.334 17.476 25.334H16.54V24.002H17.476C18.022 24.002 18.238 24.2 18.238 24.662ZM22.2453 27.5H23.0433L21.3873 23.3H20.5173L18.8673 27.5H19.6653L20.0373 26.504H21.8733L22.2453 27.5ZM20.2833 25.85L20.9553 24.05L21.6273 25.85H20.2833ZM26.5869 23.3V26.276L24.3729 23.3H23.6589V27.5H24.4089V24.524L26.6169 27.5H27.3309V23.3H26.5869ZM30.9134 23.3L29.8214 25.13L28.7294 23.3H27.8654L29.4374 25.814V27.5H30.2054V25.814L31.7774 23.3H30.9134Z" fill="black"/>
</svg>
