<svg width="32" height="33" viewBox="0 0 32 33" fill="none" xmlns="http://www.w3.org/2000/svg">
<rect x="4" width="24" height="24" rx="4" fill="#6096C3"/>
<path d="M0.312 28.9C0.294 30.142 1.212 31.102 2.466 31.084C3.3 31.084 3.99 30.688 4.332 29.962L3.684 29.614C3.438 30.118 3.012 30.37 2.484 30.37C1.668 30.37 1.11 29.746 1.11 28.9C1.11 28.054 1.668 27.43 2.484 27.43C3.012 27.43 3.432 27.682 3.678 28.186L4.332 27.838C3.99 27.112 3.3 26.716 2.466 26.716C1.212 26.698 0.294 27.67 0.312 28.9ZM4.74755 28.9C4.72955 30.112 5.67755 31.102 6.93155 31.084C8.18555 31.102 9.13355 30.112 9.11555 28.9C9.13355 27.694 8.18555 26.692 6.93155 26.716C5.67755 26.692 4.72955 27.694 4.74755 28.9ZM8.31755 28.9C8.31755 29.746 7.75355 30.37 6.93155 30.37C6.10955 30.37 5.54555 29.746 5.54555 28.9C5.54555 28.054 6.10955 27.43 6.93155 27.43C7.75355 27.43 8.31755 28.054 8.31755 28.9ZM13.6397 26.8L12.2357 29.134L10.8317 26.8H9.95573V31H10.6997V27.916L11.9357 29.962H12.5297L13.7657 27.916V31H14.5097V26.8H13.6397ZM18.8212 28.162C18.8212 27.292 18.2872 26.8 17.3092 26.8H15.5632V31H16.3252V29.524H17.3092C18.2932 29.524 18.8212 29.044 18.8212 28.162ZM18.0232 28.162C18.0232 28.624 17.8072 28.834 17.2612 28.834H16.3252V27.502H17.2612C17.8072 27.502 18.0232 27.7 18.0232 28.162ZM22.0305 31H22.8285L21.1725 26.8H20.3025L18.6525 31H19.4505L19.8225 30.004H21.6585L22.0305 31ZM20.0685 29.35L20.7405 27.55L21.4125 29.35H20.0685ZM26.372 26.8V29.776L24.158 26.8H23.444V31H24.194V28.024L26.402 31H27.116V26.8H26.372ZM30.6985 26.8L29.6065 28.63L28.5145 26.8H27.6505L29.2225 29.314V31H29.9905V29.314L31.5625 26.8H30.6985Z" fill="black"/>
</svg>
