<svg width="40" height="56" viewBox="0 0 40 56" fill="none" xmlns="http://www.w3.org/2000/svg">
<path d="M30.1623 34.5676L21.6427 39.3687L31.4803 56L31.524 55.9754L33.1051 49.1446L39.9563 51.2236L39.9999 51.1989L30.1623 34.5676Z" fill="#28788F"/>
<path d="M20.3248 39.3687L11.8052 34.5676L1.96756 51.1989L2.01125 51.2236L8.86245 49.1446L10.4435 55.9754L10.4872 56L20.3248 39.3687Z" fill="#28788F"/>
<ellipse cx="19.6752" cy="19.2042" rx="19.6752" ry="19.2042" fill="white"/>
<ellipse cx="19.6752" cy="19.2042" rx="15.7402" ry="15.3634" fill="#28788F"/>
<ellipse cx="19.6753" cy="19.2042" rx="11.8051" ry="11.5225" fill="white"/>
<ellipse cx="19.6753" cy="19.2042" rx="9.83762" ry="9.60211" fill="#28788F"/>
<path d="M19.6753 13.443L21.0005 17.4239H25.289L21.8195 19.8842L23.1447 23.8652L19.6753 21.4048L16.2058 23.8652L17.531 19.8842L14.0616 17.4239H18.3501L19.6753 13.443Z" fill="white"/>
</svg>
