<svg width="60" height="20" viewBox="0 0 60 20" fill="none" xmlns="http://www.w3.org/2000/svg">
<rect width="20" height="20" rx="2" fill="#03AFF0"/>
<path d="M28.312 9.4C28.294 10.642 29.212 11.602 30.466 11.584C31.3 11.584 31.99 11.188 32.332 10.462L31.684 10.114C31.438 10.618 31.012 10.87 30.484 10.87C29.668 10.87 29.11 10.246 29.11 9.4C29.11 8.554 29.668 7.93 30.484 7.93C31.012 7.93 31.432 8.182 31.678 8.686L32.332 8.338C31.99 7.612 31.3 7.216 30.466 7.216C29.212 7.198 28.294 8.17 28.312 9.4ZM32.7475 9.4C32.7295 10.612 33.6775 11.602 34.9315 11.584C36.1855 11.602 37.1335 10.612 37.1155 9.4C37.1335 8.194 36.1855 7.192 34.9315 7.216C33.6775 7.192 32.7295 8.194 32.7475 9.4ZM36.3175 9.4C36.3175 10.246 35.7535 10.87 34.9315 10.87C34.1095 10.87 33.5455 10.246 33.5455 9.4C33.5455 8.554 34.1095 7.93 34.9315 7.93C35.7535 7.93 36.3175 8.554 36.3175 9.4ZM41.6397 7.3L40.2357 9.634L38.8317 7.3H37.9557V11.5H38.6997V8.416L39.9357 10.462H40.5297L41.7657 8.416V11.5H42.5097V7.3H41.6397ZM46.8212 8.662C46.8212 7.792 46.2872 7.3 45.3092 7.3H43.5632V11.5H44.3252V10.024H45.3092C46.2932 10.024 46.8212 9.544 46.8212 8.662ZM46.0232 8.662C46.0232 9.124 45.8072 9.334 45.2612 9.334H44.3252V8.002H45.2612C45.8072 8.002 46.0232 8.2 46.0232 8.662ZM50.0305 11.5H50.8285L49.1725 7.3H48.3025L46.6525 11.5H47.4505L47.8225 10.504H49.6585L50.0305 11.5ZM48.0685 9.85L48.7405 8.05L49.4125 9.85H48.0685ZM54.372 7.3V10.276L52.158 7.3H51.444V11.5H52.194V8.524L54.402 11.5H55.116V7.3H54.372ZM58.6985 7.3L57.6065 9.13L56.5145 7.3H55.6505L57.2225 9.814V11.5H57.9905V9.814L59.5625 7.3H58.6985Z" fill="black"/>
</svg>
