<svg width="48" height="47" viewBox="0 0 48 47" fill="none" xmlns="http://www.w3.org/2000/svg">
<g filter="url(#filter0_d_65_645)">
<path d="M24 2.46967L27.5116 4.81553L31.6537 3.99207L34.0003 7.50321L38.1421 8.32753L38.9665 12.4694L42.4776 14.816L41.6541 18.958L44 22.4697L41.6541 25.9813L42.4776 30.1233L38.9665 32.4699L38.1421 36.6118L34.0003 37.4361L31.6537 40.9473L27.5116 40.1238L24 42.4697L20.4884 40.1238L16.3463 40.9473L13.9997 37.4361L9.85786 36.6118L9.03355 32.4699L5.52241 30.1233L6.34587 25.9813L4 22.4697L6.34587 18.958L5.52241 14.816L9.03355 12.4694L9.85786 8.32753L13.9997 7.50321L16.3463 3.99207L20.4884 4.81553L24 2.46967Z" fill="url(#paint0_linear_65_645)"/>
<path d="M24.2777 2.0539L24 1.86836L23.7223 2.0539L20.3828 4.28476L16.4438 3.50167L16.1162 3.43654L15.9306 3.71425L13.6991 7.05324L9.76027 7.83715L9.43268 7.90234L9.36748 8.22993L8.58358 12.1687L5.24458 14.4003L4.96688 14.5859L5.03201 14.9135L5.81509 18.8525L3.58424 22.1919L3.3987 22.4697L3.58424 22.7474L5.81509 26.0869L5.03201 30.0258L4.96688 30.3534L5.24458 30.539L8.58358 32.7706L9.36748 36.7094L9.43268 37.037L9.76027 37.1022L13.6991 37.8861L15.9306 41.2251L16.1162 41.5028L16.4438 41.4377L20.3828 40.6546L23.7223 42.8854L24 43.071L24.2777 42.8854L27.6172 40.6546L31.5562 41.4377L31.8838 41.5028L32.0694 41.2251L34.3009 37.8861L38.2397 37.1022L38.5673 37.037L38.6325 36.7094L39.4164 32.7706L42.7554 30.539L43.0331 30.3534L42.968 30.0258L42.1849 26.0869L44.4158 22.7474L44.6013 22.4697L44.4158 22.1919L42.1849 18.8525L42.968 14.9135L43.0331 14.5859L42.7554 14.4003L39.4164 12.1687L38.6325 8.22993L38.5673 7.90234L38.2397 7.83715L34.3009 7.05324L32.0694 3.71425L31.8838 3.43654L31.5562 3.50167L27.6172 4.28476L24.2777 2.0539Z" stroke="white"/>
</g>
<defs>
<filter id="filter0_d_65_645" x="0.797363" y="0.267059" width="46.4053" height="46.4052" filterUnits="userSpaceOnUse" color-interpolation-filters="sRGB">
<feFlood flood-opacity="0" result="BackgroundImageFix"/>
<feColorMatrix in="SourceAlpha" type="matrix" values="0 0 0 0 0 0 0 0 0 0 0 0 0 0 0 0 0 0 127 0" result="hardAlpha"/>
<feOffset dy="1"/>
<feGaussianBlur stdDeviation="1"/>
<feComposite in2="hardAlpha" operator="out"/>
<feColorMatrix type="matrix" values="0 0 0 0 0 0 0 0 0 0 0 0 0 0 0 0 0 0 0.25 0"/>
<feBlend mode="normal" in2="BackgroundImageFix" result="effect1_dropShadow_65_645"/>
<feBlend mode="normal" in="SourceGraphic" in2="effect1_dropShadow_65_645" result="shape"/>
</filter>
<linearGradient id="paint0_linear_65_645" x1="24" y1="2.46967" x2="24" y2="42.4697" gradientUnits="userSpaceOnUse">
<stop stop-color="#008BDD"/>
<stop offset="1" stop-color="#0160B0"/>
</linearGradient>
</defs>
</svg>
