<svg width="400" height="125" viewBox="0 0 400 125" fill="none" xmlns="http://www.w3.org/2000/svg">
<path d="M401.269 0H1.26892L1.26929 11.771C1.26929 11.771 149.23 31.3578 243.144 49.9531C274.698 56.201 307.758 64.4543 323.769 66.8123C339.78 69.1703 401.269 66.8123 401.269 66.8123V0Z" fill="url(#paint0_linear_65_596)"/>
<g filter="url(#filter0_dd_65_596)">
<path d="M1.26892 28.2158V11.981L215.062 45.075L281.52 57.5633L401.269 83.1642V116.883L98.4476 62.5586L1.26892 28.2158Z" fill="white"/>
</g>
<path d="M0.445435 63.4824V45.3452C0.445435 45.3452 118.889 65.6315 195.577 69.1112C241.447 71.1925 267.247 68.1814 313.156 69.1112C347.608 69.8089 401.34 72.2383 401.34 72.2383V90.3755L228.724 81.6196C228.724 81.6196 120.812 65.0493 51.1045 63.4824C31.3259 63.0378 0.445435 63.4824 0.445435 63.4824Z" fill="#01A8F7"/>
<path d="M171.114 55.1669L0 27V42C0 42 126.33 70.1562 206.763 78.8797C282.658 87.1111 401.269 98.7323 401.269 98.7323V63.4388C401.269 63.4388 343.761 70.2888 306.83 68.9534C284.004 68.128 271.364 65.7288 248.666 63.4388C230.336 61.5895 220.075 60.4375 201.76 58.4757C189.791 57.1936 171.114 55.1669 171.114 55.1669Z" fill="#034D89"/>
<path d="M169.309 48.7038L0.445435 38.0716V56.2088H58.6095L156.175 66.2155L270.627 73.7206L400.089 80.6002V73.7206L305.65 60.5867L169.309 48.7038Z" fill="#01A8F7"/>
<path d="M51.4169 62.311V49.311L125.417 62.311H51.4169Z" fill="white"/>
<g filter="url(#filter1_d_65_596)">
<path d="M401.269 81.9096V63.8016L51.5968 53.811V58.8063H83.4419L130.897 63.8016L220.813 71.919L401.269 81.9096Z" fill="url(#paint1_linear_65_596)"/>
</g>
<path d="M105.445 71.75L51.1954 65V62.25C51.1954 62.25 98.4468 64.3631 103.514 65C108.58 65.6369 114.134 67.1548 120.945 68.5C143.393 72.933 178.541 79.25 178.541 79.25H159.695L105.445 71.75Z" fill="#009CE6"/>
<defs>
<filter id="filter0_dd_65_596" x="-2.73108" y="5.98103" width="408" height="118.902" filterUnits="userSpaceOnUse" color-interpolation-filters="sRGB">
<feFlood flood-opacity="0" result="BackgroundImageFix"/>
<feColorMatrix in="SourceAlpha" type="matrix" values="0 0 0 0 0 0 0 0 0 0 0 0 0 0 0 0 0 0 127 0" result="hardAlpha"/>
<feOffset dy="4"/>
<feGaussianBlur stdDeviation="2"/>
<feComposite in2="hardAlpha" operator="out"/>
<feColorMatrix type="matrix" values="0 0 0 0 0.278431 0 0 0 0 0.278431 0 0 0 0 0.278431 0 0 0 1 0"/>
<feBlend mode="normal" in2="BackgroundImageFix" result="effect1_dropShadow_65_596"/>
<feColorMatrix in="SourceAlpha" type="matrix" values="0 0 0 0 0 0 0 0 0 0 0 0 0 0 0 0 0 0 127 0" result="hardAlpha"/>
<feOffset dy="-4"/>
<feGaussianBlur stdDeviation="1"/>
<feComposite in2="hardAlpha" operator="out"/>
<feColorMatrix type="matrix" values="0 0 0 0 0 0 0 0 0 0 0 0 0 0 0 0 0 0 0.25 0"/>
<feBlend mode="normal" in2="effect1_dropShadow_65_596" result="effect2_dropShadow_65_596"/>
<feBlend mode="normal" in="SourceGraphic" in2="effect2_dropShadow_65_596" result="shape"/>
</filter>
<filter id="filter1_d_65_596" x="43.5968" y="49.811" width="365.672" height="44.0986" filterUnits="userSpaceOnUse" color-interpolation-filters="sRGB">
<feFlood flood-opacity="0" result="BackgroundImageFix"/>
<feColorMatrix in="SourceAlpha" type="matrix" values="0 0 0 0 0 0 0 0 0 0 0 0 0 0 0 0 0 0 127 0" result="hardAlpha"/>
<feOffset dy="4"/>
<feGaussianBlur stdDeviation="4"/>
<feComposite in2="hardAlpha" operator="out"/>
<feColorMatrix type="matrix" values="0 0 0 0 0.0352941 0 0 0 0 0.109804 0 0 0 0 0.203922 0 0 0 1 0"/>
<feBlend mode="normal" in2="BackgroundImageFix" result="effect1_dropShadow_65_596"/>
<feBlend mode="normal" in="SourceGraphic" in2="effect1_dropShadow_65_596" result="shape"/>
</filter>
<linearGradient id="paint0_linear_65_596" x1="1.26892" y1="5.79154" x2="401.251" y2="67.9741" gradientUnits="userSpaceOnUse">
<stop stop-color="#00387A"/>
<stop offset="1" stop-color="#3DCDFD"/>
</linearGradient>
<linearGradient id="paint1_linear_65_596" x1="401.269" y1="72.3484" x2="51.5968" y2="67.8604" gradientUnits="userSpaceOnUse">
<stop stop-color="#0093E0"/>
<stop offset="1" stop-color="#135284"/>
</linearGradient>
</defs>
</svg>
